<svg width="34" height="35" viewBox="0 0 34 35" fill="none" xmlns="http://www.w3.org/2000/svg">
<g clip-path="url(#clip0_40000147_6555)">
<path d="M17.0003 32.6272C8.62822 32.6272 1.81543 25.8164 1.81543 17.4443C1.81543 9.07228 8.62622 2.26148 17.0003 2.26148C25.3743 2.26148 32.1831 9.07228 32.1831 17.4443C32.1831 25.8164 25.3723 32.6272 17.0003 32.6272ZM17.0003 3.78077C9.46583 3.78077 3.33471 9.90989 3.33471 17.4443C3.33471 24.9788 9.46583 31.1099 17.0003 31.1099C24.5347 31.1099 30.6639 24.9808 30.6639 17.4463C30.6639 9.91189 24.5347 3.78277 17.0003 3.78277V3.78077Z" fill="#262626"/>
<path d="M17 34.4445C7.62641 34.4445 0 26.818 0 17.4445C0 8.07087 7.62641 0.444458 17 0.444458C26.3736 0.444458 34 8.07087 34 17.4445C34 26.818 26.3736 34.4445 17 34.4445ZM17 1.17012C8.02622 1.17012 0.725658 8.47068 0.725658 17.4445C0.725658 26.4182 8.02622 33.7188 17 33.7188C25.9738 33.7188 33.2743 26.4182 33.2743 17.4445C33.2743 8.47068 25.9738 1.17012 17 1.17012Z" fill="#262626"/>
<path d="M25.8839 17.1666C25.744 17.3245 25.744 17.5624 25.8839 17.7203L27.905 20.0052C28.1029 20.2291 28.0089 20.583 27.7251 20.6789L24.8344 21.6465C24.6345 21.7144 24.5146 21.9183 24.5566 22.1263L25.1643 25.1148C25.2243 25.4087 24.9644 25.6666 24.6705 25.6086L21.6819 25.0009C21.476 24.9589 21.2701 25.0769 21.2021 25.2788L20.2346 28.1694C20.1387 28.4533 19.7848 28.5472 19.5609 28.3493L17.276 26.3283C17.1181 26.1883 16.8802 26.1883 16.7223 26.3283L14.4393 28.3493C14.2154 28.5472 13.8616 28.4533 13.7656 28.1694L12.7981 25.2788C12.7301 25.0789 12.5262 24.9589 12.3183 25.0009L9.32973 25.6086C9.03587 25.6686 8.778 25.4087 8.83597 25.1148L9.44368 22.1263C9.48566 21.9203 9.36772 21.7144 9.16581 21.6465L6.27517 20.6789C5.99131 20.583 5.89735 20.2291 6.09526 20.0052L8.11631 17.7203C8.25624 17.5624 8.25624 17.3245 8.11631 17.1666L6.09526 14.8817C5.89735 14.6578 5.99131 14.3039 6.27517 14.208L9.16581 13.2404C9.36572 13.1725 9.48566 12.9686 9.44368 12.7607L8.83597 9.77206C8.776 9.4782 9.03587 9.22032 9.32973 9.2783L12.3183 9.88601C12.5242 9.92799 12.7301 9.81005 12.7981 9.60814L13.7656 6.7175C13.8616 6.43364 14.2154 6.33968 14.4393 6.53758L16.7223 8.55863C16.8802 8.69857 17.1181 8.69857 17.276 8.55863L19.5609 6.53758C19.7848 6.33968 20.1387 6.43364 20.2346 6.7175L21.2021 9.60814C21.2701 9.80805 21.474 9.92799 21.6819 9.88601L24.6705 9.2783C24.9644 9.21832 25.2223 9.4782 25.1643 9.77206L24.5566 12.7607C24.5146 12.9666 24.6325 13.1725 24.8344 13.2404L27.7251 14.208C28.0089 14.3039 28.1029 14.6578 27.905 14.8817L25.8839 17.1666Z" fill="#262626"/>
</g>
<defs>
<clipPath id="clip0_40000147_6555">
<rect width="34" height="34" fill="white" transform="matrix(1 0 0 -1 0 34.4445)"/>
</clipPath>
</defs>
</svg>
